HIERARCHY
ROOT RootJoint
{
    OFFSET   0.000000   0.000000   0.000000
    CHANNELS 6 Xposition Yposition Zposition Xrotation Yrotation Zrotation
    JOINT pelvis_lowerback
    {
        OFFSET   0.000000   0.093605   0.000000
        CHANNELS 3 Xrotation Yrotation Zrotation
        JOINT lowerback_torso
        {
            OFFSET   0.000000   0.100000   0.000000
            CHANNELS 3 Xrotation Yrotation Zrotation
            JOINT torso_head
            {
                OFFSET   0.000000   0.282350   0.000000
                CHANNELS 3 Xrotation Yrotation Zrotation
                End Site
                {
                    OFFSET   0.000000   0.192650   0.000000
                }
            }
            JOINT rTorso_Clavicle
            {
                OFFSET  -0.001000   0.157500   0.000000
                CHANNELS 3 Xrotation Yrotation Zrotation
                JOINT rShoulder
                {
                    OFFSET  -0.117647   0.000000   0.000000
                    CHANNELS 3 Xrotation Yrotation Zrotation
                    JOINT rElbow
                    {
                        OFFSET  -0.245000   0.000000   0.000000
                        CHANNELS 3 Xrotation Yrotation Zrotation
                        JOINT rWrist
                        {
                            OFFSET  -0.240000   0.000000   0.000000
                            CHANNELS 3 Xrotation Yrotation Zrotation
                            End Site
                            {
                                OFFSET  -0.116353  -0.002500   0.000000
                            }
                        }
                    }
                }
            }
            JOINT lTorso_Clavicle
            {
                OFFSET   0.001000   0.157500   0.000000
                CHANNELS 3 Xrotation Yrotation Zrotation
                JOINT lShoulder
                {
                    OFFSET   0.117647   0.000000   0.000000
                    CHANNELS 3 Xrotation Yrotation Zrotation
                    JOINT lElbow
                    {
                        OFFSET   0.245000   0.000000   0.000000
                        CHANNELS 3 Xrotation Yrotation Zrotation
                        JOINT lWrist
                        {
                            OFFSET   0.240000   0.000000   0.000000
                            CHANNELS 3 Xrotation Yrotation Zrotation
                            End Site
                            {
                                OFFSET   0.116353  -0.002500   0.000000
                            }
                        }
                    }
                }
            }
        }
    }
    JOINT rHip
    {
        OFFSET  -0.100000  -0.051395   0.000000
        CHANNELS 3 Xrotation Yrotation Zrotation
        JOINT rKnee
        {
            OFFSET   0.000000  -0.410000   0.000000
            CHANNELS 3 Xrotation Yrotation Zrotation
            JOINT rAnkle
            {
                OFFSET   0.000000  -0.390000   0.000000
                CHANNELS 3 Xrotation Yrotation Zrotation
                JOINT rToeJoint
                {
                    OFFSET   0.000000  -0.050000   0.130000
                    CHANNELS 3 Xrotation Yrotation Zrotation
                    End Site
                    {
                        OFFSET  -0.010000   0.002000   0.060000
                    }
                }
            }
        }
    }
    JOINT lHip
    {
        OFFSET   0.100000  -0.051395   0.000000
        CHANNELS 3 Xrotation Yrotation Zrotation
        JOINT lKnee
        {
            OFFSET   0.000000  -0.410000   0.000000
            CHANNELS 3 Xrotation Yrotation Zrotation
            JOINT lAnkle
            {
                OFFSET   0.000000  -0.390000   0.000000
                CHANNELS 3 Xrotation Yrotation Zrotation
                JOINT lToeJoint
                {
                    OFFSET   0.000000  -0.050000   0.130000
                    CHANNELS 3 Xrotation Yrotation Zrotation
                    End Site
                    {
                        OFFSET   0.010000   0.002000   0.060000
                    }
                }
            }
        }
    }
}
MOTION
Frames: 5
Frame Time:   0.008333
 -2.501015   0.904285   4.333279 -166.754892 -39.929665 -173.411514   6.531729  -0.269877  -0.452010   5.439893  -2.178435   1.122764  -1.373248  -0.780523   0.480415   3.138828   7.450925  10.722478  12.721632  17.204473  48.427283  -0.000048  15.584438   0.000216  13.867991   3.072084 -21.456506   3.328252  -7.813014 -11.409113  13.239209 -21.966507 -48.552789   0.000047 -22.193678   0.000137  13.163681  -4.972836  24.892585   8.878454  -8.967408  -6.389415  14.178125  -0.000083  -0.000120 -10.218771  -8.983674   2.539211  -2.009659  -0.000178  -0.000312   5.065057   9.421747  13.255338  15.401139  -0.000022  -0.000026 -10.013845  12.931896   2.000863   2.019046  -0.000000   0.000000
 -2.501543   0.904336   4.333258 -166.719935 -40.045445 -173.346168   6.513568  -0.249135  -0.447286   5.422869  -2.173053   1.122644  -1.374609  -0.780392   0.463870   3.139577   7.444435  10.732480  12.730676  17.162036  48.465860  -0.000079  15.475363   0.000251  13.876883   3.083511 -21.440037   3.316718  -7.801903 -11.421658  13.214456 -21.927064 -48.592059   0.000067 -22.141825   0.000215  13.164037  -4.971702  24.897240   8.944109  -8.991331  -6.439686  14.150422  -0.000080  -0.000118 -10.188251  -8.987673   2.537375  -2.095951  -0.000177  -0.000324   5.102963   9.360494  13.198515  15.368764  -0.000027  -0.000034 -10.017347  12.879864   2.013456   2.016019  -0.000000   0.000000
 -2.502074   0.904384   4.333239 -166.684948 -40.164647 -173.277923   6.494749  -0.228805  -0.440620   5.407859  -2.168217   1.121024  -1.376759  -0.779840   0.447731   3.144389   7.435923  10.742923  12.742370  17.119873  48.503168  -0.000107  15.370919   0.000282  13.880645   3.081343 -21.416711   3.308531  -7.790702 -11.439015  13.192142 -21.889975 -48.633168   0.000078 -22.092053   0.000271  13.159472  -4.961007  24.897052   9.008256  -9.013572  -6.492647  14.126340  -0.000077  -0.000115 -10.160771  -8.992705   2.535033  -2.182095  -0.000177  -0.000337   5.139705   9.298569  13.139500  15.336259  -0.000032  -0.000041 -10.019995  12.824650   2.023635   2.012422  -0.000001   0.000000
 -2.502597   0.904430   4.333222 -166.650891 -40.282504 -173.210655   6.476804  -0.208390  -0.432421   5.394889  -2.162834   1.119860  -1.379192  -0.779167   0.432892   3.150699   7.426710  10.753396  12.754603  17.079565  48.538857  -0.000129  15.272706   0.000303  13.882500   3.074587 -21.389868   3.303143  -7.779014 -11.458254  13.172249 -21.855103 -48.674363   0.000082 -22.045240   0.000308  13.153319  -4.948740  24.891805   9.069530  -9.034422  -6.545043  14.105655  -0.000073  -0.000110 -10.134560  -8.998134   2.532416  -2.268153  -0.000177  -0.000346   5.174382   9.237797  13.081564  15.305543  -0.000035  -0.000047 -10.022864  12.769329   2.032538   2.008654  -0.000001   0.000000
 -2.503106   0.904474   4.333207 -166.618458 -40.396882 -173.145795   6.460140  -0.187944  -0.423236   5.383777  -2.156642   1.119521  -1.381598  -0.778451   0.419279   3.157261   7.417666  10.763871  12.766439  17.041697  48.572821  -0.000146  15.180829   0.000317  13.883816   3.066836 -21.361710   3.299943  -7.766988 -11.477862  13.154639 -21.822126 -48.714506   0.000082 -22.001221   0.000328  13.146395  -4.936163  24.883051   9.127496  -9.054079  -6.595863  14.087539  -0.000067  -0.000103 -10.109327  -9.003706   2.529668  -2.352932  -0.000175  -0.000351   5.206856   9.179049  13.025645  15.276732  -0.000036  -0.000050 -10.025955  12.715295   2.040023   2.086272   0.000011  -0.000000
